<svg width="29" height="22" viewBox="0 0 29 22" fill="none" xmlns="http://www.w3.org/2000/svg">
<rect width="29" height="22" fill="black" fill-opacity="0"/>
<rect width="29" height="22" fill="black" fill-opacity="0"/>
<rect width="29" height="22" fill="black" fill-opacity="0"/>
<path d="M25.4597 0H3.54624C1.59011 0 0 1.5851 0 3.53507V18.4649C0 20.4149 1.59011 22 3.54624 22H25.4537C27.4099 22 29 20.4149 29 18.4649V3.54105C29.006 1.59108 27.4159 0 25.4597 0ZM27.3859 18.4649C27.3859 19.5237 26.5218 20.385 25.4597 20.385H3.54624C2.48417 20.385 1.62011 19.5237 1.62011 18.4649V3.54105C1.62011 2.48233 2.48417 1.62099 3.54624 1.62099H25.4537C26.5158 1.62099 27.3799 2.48233 27.3799 3.54105V18.4649H27.3859Z" fill="black"/>
<path d="M18.2896 10.8145L25.3821 4.47406C25.7121 4.17498 25.7421 3.66655 25.4421 3.33159C25.142 3.0026 24.632 2.9727 24.296 3.27177L14.5153 12.0227L12.6072 10.324C12.6012 10.318 12.5952 10.312 12.5952 10.306C12.5532 10.2642 12.5112 10.2283 12.4632 10.1924L4.69865 3.26579C4.36263 2.96671 3.8526 2.99662 3.55257 3.33159C3.25255 3.66655 3.28256 4.17498 3.61858 4.47406L10.7951 10.8683L3.64858 17.5377C3.32456 17.8427 3.30656 18.3512 3.61258 18.6801C3.77459 18.8476 3.9906 18.9374 4.20662 18.9374C4.40463 18.9374 4.60265 18.8656 4.75866 18.722L12.0132 11.9569L13.9813 13.7095C14.1373 13.8471 14.3293 13.9129 14.5213 13.9129C14.7133 13.9129 14.9114 13.8411 15.0614 13.7035L17.0835 11.8971L24.296 18.728C24.452 18.8775 24.656 18.9493 24.854 18.9493C25.07 18.9493 25.2801 18.8656 25.4421 18.6981C25.7481 18.3751 25.7361 17.8607 25.4121 17.5556L18.2896 10.8145Z" fill="black"/>
</svg>
