<svg width="24" height="23" viewBox="0 0 24 23" fill="none" xmlns="http://www.w3.org/2000/svg">
<rect width="24" height="23" fill="black" fill-opacity="0"/>
<path d="M2.51917 0.715723V3.50259H2.37817C1.06688 3.50259 0 4.58597 0 5.91783V6.04552L0.0187407 6.17173L0.845896 11.7326V11.7481V20.5848C0.845896 21.9166 1.91266 23 3.22407 23H20.7759C22.0872 23 23.1541 21.9165 23.1541 20.5848V11.7481V11.7326L23.9813 6.17173L24 6.04552V5.91783C24 4.58597 22.9331 3.50259 21.6218 3.50259H21.4808V0.715723C21.4808 0.320529 21.1652 0 20.7759 0H3.22407C2.83486 0 2.51917 0.320529 2.51917 0.715723ZM4.19245 1.69952H19.8074V3.50259H4.19245V1.69952ZM21.6218 5.2021C22.0111 5.2021 22.3267 5.52263 22.3267 5.91783L21.4807 11.6049V11.7481V16.2891V20.5848C21.4807 20.98 21.1651 21.3005 20.7758 21.3005H3.22407C2.83475 21.3005 2.51917 20.98 2.51917 20.5848V16.2891V11.7481V11.6049L1.67327 5.91783C1.67327 5.52263 1.98897 5.2021 2.37817 5.2021H21.6218ZM6.20127 15.3682L6.20216 15.3346L6.27545 15.1113H7.78575V15.3379C7.78575 15.7064 7.91292 16.0079 8.1745 16.2598C8.43944 16.5148 8.77633 16.6388 9.20435 16.6388C9.62256 16.6388 9.93936 16.5143 10.1731 16.2581C10.4112 15.9969 10.527 15.6601 10.527 15.2285C10.527 14.7347 10.4193 14.3669 10.2065 14.1356C9.99793 13.9088 9.65055 13.7937 9.17434 13.7937H7.98063V12.4094H9.17434C9.62969 12.4094 9.94795 12.3028 10.1203 12.0925C10.3027 11.8698 10.3952 11.5428 10.3952 11.1207C10.3952 10.728 10.2968 10.4237 10.0943 10.1903C9.8992 9.96562 9.60805 9.8564 9.20424 9.8564C8.80432 9.8564 8.48506 9.9765 8.22827 10.2234C7.97471 10.4669 7.85156 10.7643 7.85156 11.1328V11.3595H6.36424L6.26262 11.1531L6.26117 11.1034C6.23908 10.3715 6.51395 9.73925 7.07795 9.22395C7.63314 8.71693 8.34852 8.45996 9.20435 8.45996C10.0678 8.45996 10.7588 8.68906 11.2581 9.14113C11.7649 9.60011 12.0218 10.2743 12.0218 11.1452C12.0218 11.6008 11.9022 12.0225 11.6663 12.3988C11.5049 12.6561 11.2981 12.8762 11.0486 13.0562C11.3486 13.2395 11.5916 13.4764 11.7736 13.7642C12.0257 14.1629 12.1536 14.6473 12.1536 15.2042C12.1536 16.079 11.8736 16.7776 11.3215 17.2806C10.7763 17.7774 10.064 18.0293 9.20424 18.0293C8.41401 18.0293 7.70788 17.7891 7.1055 17.3153C6.48349 16.8266 6.17918 16.1715 6.20127 15.3682ZM15.4582 10.1505L13.5589 10.1688V8.81108L17.0907 8.43492V17.9015H15.4582V10.1505Z" fill="black"/>
</svg>
