<svg width="14" height="13" viewBox="0 0 14 13" fill="none" xmlns="http://www.w3.org/2000/svg">
<rect width="14" height="13" fill="black" fill-opacity="0" transform="translate(14) scale(-1 1)"/>
<rect width="14" height="13" fill="black" fill-opacity="0" transform="translate(14) scale(-1 1)"/>
<rect width="14" height="13" fill="black" fill-opacity="0" transform="translate(14) scale(-1 1)"/>
<path d="M10.1673 13C9.54565 13 9.04169 12.5055 9.04169 11.8955C9.04169 11.2855 9.54565 10.791 10.1673 10.791C10.789 10.791 11.293 11.2855 11.293 11.8955C11.293 12.5055 10.789 13 10.1673 13Z" fill="#0E293C"/>
<path d="M6.49399 10.791C5.87183 10.791 5.36835 11.2856 5.36835 11.8955C5.36835 12.5058 5.87183 13 6.49399 13C7.11559 13 7.61963 12.5058 7.61963 11.8955C7.61977 11.2856 7.11559 10.791 6.49399 10.791Z" fill="#0E293C"/>
<path d="M0.046917 0.394345C0.17928 0.0718465 0.553329 -0.0848816 0.884096 0.0465015L3.23786 0.98002C3.29231 1.00153 3.33909 1.03112 3.38405 1.06441C3.5502 1.14702 3.6813 1.29553 3.72333 1.4887L4.06066 3.15298C4.10841 3.14736 4.15379 3.13805 4.2021 3.13805H12.7857C13.4556 3.13805 14 3.70441 14 4.39968V4.53052L12.435 9.04344C12.2324 9.71953 11.8002 10.1537 11.1802 10.1537H5.17485C4.59388 10.1537 4.11022 9.72885 3.98987 9.16441C3.96976 9.12166 3.95078 9.07673 3.9403 9.02905L2.32612 1.97807L0.402118 1.21484C0.0727472 1.08496 -0.0858641 0.71698 0.046917 0.394345ZM4.71046 6.36029L5.24885 8.85355V8.89287H11.0121L11.1095 8.76218L12.6564 4.40064H4.3138L4.71046 6.36029Z" fill="#0E293C"/>
</svg>
