<svg width="16" height="14" viewBox="0 0 16 14" fill="none" xmlns="http://www.w3.org/2000/svg">
<rect width="16" height="14" fill="black" fill-opacity="0"/>
<rect width="16" height="14" fill="black" fill-opacity="0"/>
<path d="M15.9923 3.23888C15.9211 4.81438 14.8332 6.97174 12.7292 9.70983C10.5538 12.5701 8.71334 14 7.20773 14C6.2754 14 5.4858 13.1293 4.84131 11.3873C4.41059 9.79044 3.98035 8.19379 3.54978 6.59697C3.0709 4.85589 2.55746 3.98423 2.00849 3.98423C1.88881 3.98423 1.46993 4.23898 0.752805 4.74653L0 3.7655C0.789605 3.06361 1.56865 2.36189 2.33506 1.65919C3.38818 0.738575 4.17875 0.254441 4.70563 0.205494C5.95092 0.0845011 6.71732 0.945507 7.00501 2.78867C7.31589 4.77722 7.53093 6.01413 7.65189 6.49827C8.01077 8.14807 8.40565 8.97192 8.83718 8.97192C9.17206 8.97192 9.6751 8.4369 10.3458 7.36686C11.0159 6.2965 11.3748 5.48218 11.4233 4.92277C11.5186 3.99909 11.1596 3.53612 10.3458 3.53612C9.96278 3.53612 9.5679 3.62529 9.16166 3.80153C9.9479 1.19605 11.4503 -0.0692846 13.6679 0.0029236C15.3119 0.0517085 16.087 1.13031 15.9923 3.23888Z" fill="#32B8E8"/>
</svg>
