<svg width="17" height="12" viewBox="0 0 17 12" fill="none" xmlns="http://www.w3.org/2000/svg">
<rect width="17" height="12" fill="black" fill-opacity="0"/>
<rect width="17" height="12" fill="black" fill-opacity="0"/>
<path fill-rule="evenodd" clip-rule="evenodd" d="M15.1523 0.367188C15.8809 0.564941 16.4531 1.14355 16.6504 1.87744C17.0137 3.21875 17 6.01416 17 6.01416C17 6.01416 17 7.05811 16.9199 8.17529C16.8691 8.88135 16.7852 9.6167 16.6504 10.1362C16.4531 10.8706 15.8809 11.4492 15.1523 11.647C13.8223 12 8.5 12 8.5 12C8.5 12 6.24023 12 4.29492 11.8979C3.25977 11.8438 2.31445 11.7603 1.84766 11.6328C1.12109 11.4351 0.546875 10.8564 0.349609 10.1226C0 8.79541 0 6 0 6C0 6 0 5.01123 0.0742188 3.92871C0.125 3.19531 0.208984 2.41895 0.349609 1.87744C0.546875 1.14355 1.13477 0.550781 1.84766 0.353027C3.17969 0 8.5 0 8.5 0C8.5 0 10.2461 0 11.9883 0.0688477C13.2871 0.120605 14.584 0.210449 15.1523 0.367188ZM11.2324 6L6.80664 8.56934V3.43066L11.2324 6Z" fill="#FF0000"/>
</svg>
