<svg width="27" height="19" viewBox="0 0 27 19" fill="none" xmlns="http://www.w3.org/2000/svg">
<rect width="25.6413" height="18.2635" fill="black" fill-opacity="0" transform="translate(0.904053)"/>
<rect width="25.6413" height="18.2635" fill="black" fill-opacity="0" transform="translate(0.904053)"/>
<path d="M26.1962 8.25914L18.5657 0.361396C18.1002 -0.120465 17.3451 -0.120465 16.8796 0.361396C16.414 0.843356 16.414 1.62464 16.8796 2.1066L22.4747 7.89772H2.09631C1.4379 7.89772 0.904053 8.45027 0.904053 9.13174C0.904053 9.81312 1.4379 10.3658 2.09631 10.3658H22.4747L16.8798 16.1569C16.4141 16.6388 16.4141 17.4201 16.8798 17.9021C17.1125 18.1429 17.4177 18.2635 17.7229 18.2635C18.028 18.2635 18.3331 18.1429 18.5659 17.9021L26.1962 10.0043C26.6618 9.52239 26.6618 8.7411 26.1962 8.25914Z" fill="#0E293C"/>
</svg>
